<mxfile host="app.diagrams.net" modified="2024-03-12T06:18:45.481Z" agent="Mozilla/5.0 (Macintosh; Intel Mac OS X 10_15_7) AppleWebKit/537.36 (KHTML, like Gecko) Chrome/121.0.0.0 Safari/537.36" version="24.0.5" etag="pBtFUSKtT6KX5bSqVCC9" type="github">
  <diagram name="페이지-1" id="WY_TDYdsDeAgydSi8UCH">
    <mxGraphModel>
      <root>
        <mxCell id="0" />
        <mxCell id="1" parent="0" />
      </root>
    </mxGraphModel>
  </diagram>
</mxfile>
